<svg xmlns="http://www.w3.org/2000/svg" xmlns:xlink="http://www.w3.org/1999/xlink"><symbol id="cart" viewBox="0 0 60.013 60.013">
<path d="M11.68,12.506l-0.832-5h-2.99c-0.447-1.72-1.999-3-3.858-3c-2.206,0-4,1.794-4,4s1.794,4,4,4c1.859,0,3.411-1.28,3.858-3
	h1.294l0.5,3H9.624l0.222,1.161l0,0.003c0,0,0,0,0,0l2.559,13.374l1.044,5.462h0.001l1.342,7.015
	c-2.468,0.186-4.525,2.084-4.768,4.475c-0.142,1.405,0.32,2.812,1.268,3.858c0.949,1.05,2.301,1.652,3.707,1.652h2
	c0,3.309,2.691,6,6,6s6-2.691,6-6h11c0,3.309,2.691,6,6,6s6-2.691,6-6h4c0.553,0,1-0.447,1-1s-0.447-1-1-1h-4.35
	c-0.826-2.327-3.043-4-5.65-4s-4.824,1.673-5.65,4h-11.7c-0.826-2.327-3.043-4-5.65-4s-4.824,1.673-5.65,4H15
	c-0.842,0-1.652-0.362-2.224-0.993c-0.577-0.639-0.848-1.461-0.761-2.316c0.152-1.509,1.546-2.69,3.173-2.69h0.781
	c0.02,0,0.038,0,0.06,0l6.128-0.002L33,41.501v-0.001l7.145-0.002L51,41.496v-0.001l4.024-0.001c2.751,0,4.988-2.237,4.988-4.987
	V12.494L11.68,12.506z M4,10.506c-1.103,0-2-0.897-2-2s0.897-2,2-2s2,0.897,2,2S5.103,10.506,4,10.506z M46,45.506
	c2.206,0,4,1.794,4,4s-1.794,4-4,4s-4-1.794-4-4S43.794,45.506,46,45.506z M23,45.506c2.206,0,4,1.794,4,4s-1.794,4-4,4
	s-4-1.794-4-4S20.794,45.506,23,45.506z M58.013,21.506H51v-7.011l7.013-0.002V21.506z M42,39.498v-6.991h7v6.989L42,39.498z
	 M42,30.506v-7h7v7H42z M24,39.503v-6.997h7v6.995L24,39.503z M24,30.506v-7h7v7H24z M13.765,23.506H22v7h-6.895L13.765,23.506z
	 M49,21.506h-7v-7h7V21.506z M40,21.506h-7V14.5l7-0.002V21.506z M31,14.506v7h-7v-7H31z M33,23.506h7v7h-7V23.506z M51,23.506h7v7
	h-7V23.506z M22,14.504v7.003h-8.618l-1.34-7L22,14.504z M15.487,32.506H22v6.997l-5.173,0.002L15.487,32.506z M33,32.506h7v6.992
	L33,39.5V32.506z M55.024,39.494L51,39.495v-6.989h7.013v4C58.013,38.154,56.672,39.494,55.024,39.494z"/>
<g>
</g>
<g>
</g>
<g>
</g>
<g>
</g>
<g>
</g>
<g>
</g>
<g>
</g>
<g>
</g>
<g>
</g>
<g>
</g>
<g>
</g>
<g>
</g>
<g>
</g>
<g>
</g>
<g>
</g>
</symbol><symbol id="garbage" viewBox="0 0 59 59">
<g>
	<path d="M29.5,51c0.552,0,1-0.447,1-1V17c0-0.553-0.448-1-1-1s-1,0.447-1,1v33C28.5,50.553,28.948,51,29.5,51z"/>
	<path d="M19.5,51c0.552,0,1-0.447,1-1V17c0-0.553-0.448-1-1-1s-1,0.447-1,1v33C18.5,50.553,18.948,51,19.5,51z"/>
	<path d="M39.5,51c0.552,0,1-0.447,1-1V17c0-0.553-0.448-1-1-1s-1,0.447-1,1v33C38.5,50.553,38.948,51,39.5,51z"/>
	<path d="M52.5,6H38.456c-0.11-1.25-0.495-3.358-1.813-4.711C35.809,0.434,34.751,0,33.499,0H23.5c-1.252,0-2.31,0.434-3.144,1.289
		C19.038,2.642,18.653,4.75,18.543,6H6.5c-0.552,0-1,0.447-1,1s0.448,1,1,1h2.041l1.915,46.021C10.493,55.743,11.565,59,15.364,59
		h28.272c3.799,0,4.871-3.257,4.907-4.958L50.459,8H52.5c0.552,0,1-0.447,1-1S53.052,6,52.5,6z M21.792,2.681
		C22.24,2.223,22.799,2,23.5,2h9.999c0.701,0,1.26,0.223,1.708,0.681c0.805,0.823,1.128,2.271,1.24,3.319H20.553
		C20.665,4.952,20.988,3.504,21.792,2.681z M46.544,53.979C46.538,54.288,46.4,57,43.636,57H15.364
		c-2.734,0-2.898-2.717-2.909-3.042L10.542,8h37.915L46.544,53.979z"/>
</g>
<g>
</g>
<g>
</g>
<g>
</g>
<g>
</g>
<g>
</g>
<g>
</g>
<g>
</g>
<g>
</g>
<g>
</g>
<g>
</g>
<g>
</g>
<g>
</g>
<g>
</g>
<g>
</g>
<g>
</g>
</symbol><symbol id="minus" viewBox="0 0 512 512">
<g>
	<g>
		<path d="M492,236H20c-11.046,0-20,8.954-20,20c0,11.046,8.954,20,20,20h472c11.046,0,20-8.954,20-20S503.046,236,492,236z"/>
	</g>
</g>
<g>
</g>
<g>
</g>
<g>
</g>
<g>
</g>
<g>
</g>
<g>
</g>
<g>
</g>
<g>
</g>
<g>
</g>
<g>
</g>
<g>
</g>
<g>
</g>
<g>
</g>
<g>
</g>
<g>
</g>
</symbol><symbol id="next" viewBox="0 0 240.823 240.823">
<g>
	<path id="Chevron_Right_1_" d="M183.189,111.816L74.892,3.555c-4.752-4.74-12.451-4.74-17.215,0c-4.752,4.74-4.752,12.439,0,17.179
		l99.707,99.671l-99.695,99.671c-4.752,4.74-4.752,12.439,0,17.191c4.752,4.74,12.463,4.74,17.215,0l108.297-108.261
		C187.881,124.315,187.881,116.495,183.189,111.816z"/>
	<g>
	</g>
	<g>
	</g>
	<g>
	</g>
	<g>
	</g>
	<g>
	</g>
	<g>
	</g>
</g>
<g>
</g>
<g>
</g>
<g>
</g>
<g>
</g>
<g>
</g>
<g>
</g>
<g>
</g>
<g>
</g>
<g>
</g>
<g>
</g>
<g>
</g>
<g>
</g>
<g>
</g>
<g>
</g>
<g>
</g>
</symbol><symbol id="pluss" viewBox="0 0 512 512">
<g>
	<g>
		<path d="M492,236H276V20c0-11.046-8.954-20-20-20c-11.046,0-20,8.954-20,20v216H20c-11.046,0-20,8.954-20,20s8.954,20,20,20h216
			v216c0,11.046,8.954,20,20,20s20-8.954,20-20V276h216c11.046,0,20-8.954,20-20C512,244.954,503.046,236,492,236z"/>
	</g>
</g>
<g>
</g>
<g>
</g>
<g>
</g>
<g>
</g>
<g>
</g>
<g>
</g>
<g>
</g>
<g>
</g>
<g>
</g>
<g>
</g>
<g>
</g>
<g>
</g>
<g>
</g>
<g>
</g>
<g>
</g>
</symbol></svg>