<svg xmlns="http://www.w3.org/2000/svg" xmlns:xlink="http://www.w3.org/1999/xlink"><symbol id="cart" viewBox="0 0 60.013 60.013">
<path d="M11.68,12.506l-0.832-5h-2.99c-0.447-1.72-1.999-3-3.858-3c-2.206,0-4,1.794-4,4s1.794,4,4,4c1.859,0,3.411-1.28,3.858-3
	h1.294l0.5,3H9.624l0.222,1.161l0,0.003c0,0,0,0,0,0l2.559,13.374l1.044,5.462h0.001l1.342,7.015
	c-2.468,0.186-4.525,2.084-4.768,4.475c-0.142,1.405,0.32,2.812,1.268,3.858c0.949,1.05,2.301,1.652,3.707,1.652h2
	c0,3.309,2.691,6,6,6s6-2.691,6-6h11c0,3.309,2.691,6,6,6s6-2.691,6-6h4c0.553,0,1-0.447,1-1s-0.447-1-1-1h-4.35
	c-0.826-2.327-3.043-4-5.65-4s-4.824,1.673-5.65,4h-11.7c-0.826-2.327-3.043-4-5.65-4s-4.824,1.673-5.65,4H15
	c-0.842,0-1.652-0.362-2.224-0.993c-0.577-0.639-0.848-1.461-0.761-2.316c0.152-1.509,1.546-2.69,3.173-2.69h0.781
	c0.02,0,0.038,0,0.06,0l6.128-0.002L33,41.501v-0.001l7.145-0.002L51,41.496v-0.001l4.024-0.001c2.751,0,4.988-2.237,4.988-4.987
	V12.494L11.68,12.506z M4,10.506c-1.103,0-2-0.897-2-2s0.897-2,2-2s2,0.897,2,2S5.103,10.506,4,10.506z M46,45.506
	c2.206,0,4,1.794,4,4s-1.794,4-4,4s-4-1.794-4-4S43.794,45.506,46,45.506z M23,45.506c2.206,0,4,1.794,4,4s-1.794,4-4,4
	s-4-1.794-4-4S20.794,45.506,23,45.506z M58.013,21.506H51v-7.011l7.013-0.002V21.506z M42,39.498v-6.991h7v6.989L42,39.498z
	 M42,30.506v-7h7v7H42z M24,39.503v-6.997h7v6.995L24,39.503z M24,30.506v-7h7v7H24z M13.765,23.506H22v7h-6.895L13.765,23.506z
	 M49,21.506h-7v-7h7V21.506z M40,21.506h-7V14.5l7-0.002V21.506z M31,14.506v7h-7v-7H31z M33,23.506h7v7h-7V23.506z M51,23.506h7v7
	h-7V23.506z M22,14.504v7.003h-8.618l-1.34-7L22,14.504z M15.487,32.506H22v6.997l-5.173,0.002L15.487,32.506z M33,32.506h7v6.992
	L33,39.5V32.506z M55.024,39.494L51,39.495v-6.989h7.013v4C58.013,38.154,56.672,39.494,55.024,39.494z"/>
<g>
</g>
<g>
</g>
<g>
</g>
<g>
</g>
<g>
</g>
<g>
</g>
<g>
</g>
<g>
</g>
<g>
</g>
<g>
</g>
<g>
</g>
<g>
</g>
<g>
</g>
<g>
</g>
<g>
</g>
</symbol><symbol id="check-mark" viewBox="0 0 512 512"><path d="m369.164062 174.769531c7.8125 7.8125 7.8125 20.476563 0 28.285157l-134.171874 134.175781c-7.8125 7.808593-20.472657 7.808593-28.285157 0l-63.871093-63.875c-7.8125-7.808594-7.8125-20.472657 0-28.28125 7.808593-7.8125 20.472656-7.8125 28.28125 0l49.730468 49.730469 120.03125-120.035157c7.8125-7.808593 20.476563-7.808593 28.285156 0zm142.835938 81.230469c0 141.503906-114.515625 256-256 256-141.503906 0-256-114.515625-256-256 0-141.503906 114.515625-256 256-256 141.503906 0 256 114.515625 256 256zm-40 0c0-119.394531-96.621094-216-216-216-119.394531 0-216 96.621094-216 216 0 119.394531 96.621094 216 216 216 119.394531 0 216-96.621094 216-216zm0 0"/></symbol><symbol id="garbage" viewBox="0 0 59 59">
<g>
	<path d="M29.5,51c0.552,0,1-0.447,1-1V17c0-0.553-0.448-1-1-1s-1,0.447-1,1v33C28.5,50.553,28.948,51,29.5,51z"/>
	<path d="M19.5,51c0.552,0,1-0.447,1-1V17c0-0.553-0.448-1-1-1s-1,0.447-1,1v33C18.5,50.553,18.948,51,19.5,51z"/>
	<path d="M39.5,51c0.552,0,1-0.447,1-1V17c0-0.553-0.448-1-1-1s-1,0.447-1,1v33C38.5,50.553,38.948,51,39.5,51z"/>
	<path d="M52.5,6H38.456c-0.11-1.25-0.495-3.358-1.813-4.711C35.809,0.434,34.751,0,33.499,0H23.5c-1.252,0-2.31,0.434-3.144,1.289
		C19.038,2.642,18.653,4.75,18.543,6H6.5c-0.552,0-1,0.447-1,1s0.448,1,1,1h2.041l1.915,46.021C10.493,55.743,11.565,59,15.364,59
		h28.272c3.799,0,4.871-3.257,4.907-4.958L50.459,8H52.5c0.552,0,1-0.447,1-1S53.052,6,52.5,6z M21.792,2.681
		C22.24,2.223,22.799,2,23.5,2h9.999c0.701,0,1.26,0.223,1.708,0.681c0.805,0.823,1.128,2.271,1.24,3.319H20.553
		C20.665,4.952,20.988,3.504,21.792,2.681z M46.544,53.979C46.538,54.288,46.4,57,43.636,57H15.364
		c-2.734,0-2.898-2.717-2.909-3.042L10.542,8h37.915L46.544,53.979z"/>
</g>
<g>
</g>
<g>
</g>
<g>
</g>
<g>
</g>
<g>
</g>
<g>
</g>
<g>
</g>
<g>
</g>
<g>
</g>
<g>
</g>
<g>
</g>
<g>
</g>
<g>
</g>
<g>
</g>
<g>
</g>
</symbol><symbol id="minus" viewBox="0 0 512 512">
<g>
	<g>
		<path d="M492,236H20c-11.046,0-20,8.954-20,20c0,11.046,8.954,20,20,20h472c11.046,0,20-8.954,20-20S503.046,236,492,236z"/>
	</g>
</g>
<g>
</g>
<g>
</g>
<g>
</g>
<g>
</g>
<g>
</g>
<g>
</g>
<g>
</g>
<g>
</g>
<g>
</g>
<g>
</g>
<g>
</g>
<g>
</g>
<g>
</g>
<g>
</g>
<g>
</g>
</symbol><symbol id="next" viewBox="0 0 240.823 240.823">
<g>
	<path id="Chevron_Right_1_" d="M183.189,111.816L74.892,3.555c-4.752-4.74-12.451-4.74-17.215,0c-4.752,4.74-4.752,12.439,0,17.179
		l99.707,99.671l-99.695,99.671c-4.752,4.74-4.752,12.439,0,17.191c4.752,4.74,12.463,4.74,17.215,0l108.297-108.261
		C187.881,124.315,187.881,116.495,183.189,111.816z"/>
	<g>
	</g>
	<g>
	</g>
	<g>
	</g>
	<g>
	</g>
	<g>
	</g>
	<g>
	</g>
</g>
<g>
</g>
<g>
</g>
<g>
</g>
<g>
</g>
<g>
</g>
<g>
</g>
<g>
</g>
<g>
</g>
<g>
</g>
<g>
</g>
<g>
</g>
<g>
</g>
<g>
</g>
<g>
</g>
<g>
</g>
</symbol><symbol id="pluss" viewBox="0 0 512 512">
<g>
	<g>
		<path d="M492,236H276V20c0-11.046-8.954-20-20-20c-11.046,0-20,8.954-20,20v216H20c-11.046,0-20,8.954-20,20s8.954,20,20,20h216
			v216c0,11.046,8.954,20,20,20s20-8.954,20-20V276h216c11.046,0,20-8.954,20-20C512,244.954,503.046,236,492,236z"/>
	</g>
</g>
<g>
</g>
<g>
</g>
<g>
</g>
<g>
</g>
<g>
</g>
<g>
</g>
<g>
</g>
<g>
</g>
<g>
</g>
<g>
</g>
<g>
</g>
<g>
</g>
<g>
</g>
<g>
</g>
<g>
</g>
</symbol><symbol id="water" viewBox="0 0 58 58">
<g>
	<path style="fill:#DAE7EF;" d="M39.216,40.149c-0.212-2.626-0.967-5.153-1.917-7.611c-1.163-3.009-0.925-7.264,0.799-9.495
		c0.878-1.136,1.264-2.591,1.257-4.027c-0.049-9.303-5.103-11.523-6.512-11.961c-0.298-0.093-0.55-0.285-0.705-0.557
		c-0.318-0.554-0.501-1.301-0.606-2.012c-0.096-0.651-0.664-1.112-1.32-1.057C29.824,3.462,29.419,3.48,29,3.48
		s-0.824-0.018-1.212-0.051c-0.656-0.055-1.224,0.406-1.32,1.057c-0.105,0.711-0.288,1.458-0.606,2.012
		c-0.155,0.271-0.407,0.464-0.705,0.557c-1.409,0.438-6.464,2.659-6.512,11.961c-0.007,1.436,0.378,2.891,1.257,4.027
		c1.725,2.231,1.962,6.486,0.799,9.495c-0.95,2.457-1.704,4.985-1.917,7.611c-0.35,4.324-0.674,10.335-0.226,14.37
		c0,1.922,2.814,3.48,9.862,3.48s11.022-1.558,11.022-3.48C39.89,50.485,39.566,44.474,39.216,40.149z"/>
	<path style="fill:#3DABEF;" d="M18.664,18.548c-0.004,0.159-0.018,0.305-0.019,0.468c-0.008,1.436,0.379,2.891,1.257,4.027
		c1.725,2.231,1.962,6.486,0.799,9.495c-0.95,2.457-1.704,4.985-1.917,7.611c-0.012,0.147-0.023,0.31-0.035,0.461
		C21.373,41.319,24.991,41.76,29,41.76s7.627-0.441,10.251-1.149c-0.012-0.151-0.023-0.314-0.035-0.461
		c-0.212-2.626-0.967-5.154-1.917-7.611c-1.163-3.009-0.926-7.264,0.799-9.495c0.878-1.136,1.264-2.591,1.257-4.027
		c-0.001-0.164-0.015-0.309-0.019-0.468C36.706,19.269,33.052,19.72,29,19.72S21.293,19.269,18.664,18.548z"/>
	<path style="fill:#FFFFFF;" d="M26.742,54.36c-2.038,0-3.504-0.469-4.363-1.396c-0.745-0.804-0.772-1.679-0.759-1.964v-1.12
		c0-0.553,0.447-1,1-1s1,0.447,1,1l-0.007,1.264l0,0c0.003,0,0.011,0.244,0.269,0.499c0.306,0.301,1.152,0.801,3.34,0.708
		c0.563-0.035,1.018,0.408,1.038,0.96c0.021,0.552-0.408,1.017-0.96,1.038C27.109,54.356,26.923,54.36,26.742,54.36z"/>
	<path style="fill:#FFFFFF;" d="M22.619,47.399c-0.553,0-1-0.447-1-1v-1.17c0-0.553,0.447-1,1-1s1,0.447,1,1v1.17
		C23.619,46.952,23.172,47.399,22.619,47.399z"/>
	<path style="fill:#FFFFFF;" d="M23.781,16.08c-0.059,0-0.117-0.005-0.178-0.016c-0.543-0.098-0.905-0.617-0.808-1.161
		c0.662-3.697,3.893-5.298,4.029-5.364c0.502-0.238,1.096-0.03,1.336,0.465c0.239,0.496,0.033,1.093-0.462,1.334
		c-0.049,0.024-2.458,1.259-2.935,3.919C24.677,15.74,24.256,16.08,23.781,16.08z"/>
	<path style="fill:#003879;" d="M29,0c-1.794,0-3.248,0.485-3.248,1.083v3.248c0,0.598,1.454,1.083,3.248,1.083
		s3.248-0.485,3.248-1.083V1.083C32.248,0.485,30.794,0,29,0z"/>
	<path style="fill:#1A69B7;" d="M28.848,2.83h-0.813c-0.276,0-0.5-0.224-0.5-0.5s0.224-0.5,0.5-0.5h0.813c0.276,0,0.5,0.224,0.5,0.5
		S29.124,2.83,28.848,2.83z"/>
</g>
<g>
</g>
<g>
</g>
<g>
</g>
<g>
</g>
<g>
</g>
<g>
</g>
<g>
</g>
<g>
</g>
<g>
</g>
<g>
</g>
<g>
</g>
<g>
</g>
<g>
</g>
<g>
</g>
<g>
</g>
</symbol></svg>